<svg  xmlns="http://www.w3.org/2000/svg" viewBox="0 0 1024 1024"><path  d="M511.989 431.579c-44.09 0-79.814 35.75-79.814 79.825 0 44.085 35.724 79.835 79.814 79.835 44.079 0 79.824-35.75 79.824-79.835 0-44.075-35.745-79.825-79.824-79.825zm189.057-125.766l-18.74 35.263c53.086 37.953 87.67 100.117 87.67 170.327 0 70.953-35.311 133.627-89.309 171.45l18.784 35.333c63.688-46.586 105.076-121.831 105.076-206.783 0-84.225-40.693-158.949-103.481-205.59zM323.507 717.438l20.488-34.074c-54.389-37.791-90.003-100.708-90.003-171.96 0-70.476 34.855-132.819 88.267-170.745l-20.434-34.02c-62.158 46.706-102.353 121.028-102.353 204.765.001 84.495 40.922 159.415 104.035 206.034z"/><path  d="M406.685 610.289c-35.062-19.013-55.875-56.18-55.875-98.886 0-42.957 21.106-80.28 56.494-99.189l-18.329-35.821c-44.416 28.507-73.856 78.322-73.856 135.011 0 56.455 29.191 106.059 73.249 134.62l18.317-35.735zm229.544-233.115l-14.248 38.041c32.489 19.712 51.165 55.414 51.165 96.189 0 40.558-18.447 76.086-50.645 95.868l14.248 38.02c43.429-28.697 72.077-77.921 72.077-133.888.001-56.169-28.864-105.582-72.597-134.23z"/><path  d="M512.013 93.174C280.69 93.174 93.182 280.695 93.182 512c0 231.307 187.508 418.826 418.831 418.826 231.315 0 418.806-187.52 418.806-418.826-.001-231.305-187.491-418.826-418.806-418.826zm-.001 819.795c-221.459 0-400.973-179.524-400.973-400.969 0-221.442 179.514-400.969 400.973-400.969 221.453 0 400.949 179.526 400.949 400.969 0 221.444-179.496 400.969-400.949 400.969z"/></svg>