<svg  xmlns="http://www.w3.org/2000/svg" viewBox="0 0 1024 1024"><path  d="M869.99 447.044c-9.028-153.6-135.645-276.377-288.273-276.377-92.672 0-182.408 45.448-238.011 119.603-1.28-.666-2.629-1.127-3.926-1.74a159.095 159.095 0 0 0-10.308-4.592 154.658 154.658 0 0 0-16.418-5.41c-1.963-.53-3.908-1.075-5.888-1.519a163.277 163.277 0 0 0-11.725-2.133c-1.724-.256-3.413-.598-5.154-.785a155.238 155.238 0 0 0-17.22-1.024c-84.702 0-153.6 68.898-153.6 153.6 0 2.167.136 4.3.273 6.434v.068C48.76 471.876 0 552.943 0 634.095c0 120.883 98.338 219.238 219.221 219.238h418.27c1.775 0 3.533-.102 5.308-.239l1.058-.136 2.287.136c1.74.137 3.482.24 5.274.24h167.304c113.186 0 205.278-92.092 205.278-205.279 0-93.678-65.314-177.698-154.01-201.01zM818.722 819.2H651.418c-1.007 0-1.98-.085-2.97-.154l-4.625-.187-3.38.187c-.972.069-1.962.154-2.952.154h-418.27c-102.058 0-185.088-83.03-185.088-185.105 0-70.895 46.166-144.486 109.79-174.985l9.677-4.625v-10.752c0-2.167.137-4.369.256-6.587l.154-2.731-.205-3.584c-.103-1.382-.205-2.765-.205-4.164 0-65.86 53.606-119.467 119.467-119.467a119.381 119.381 0 0 1 19.626 1.758c4.557.75 9.046 1.74 13.466 3.02.597.171 1.212.29 1.809.461 4.864 1.485 9.609 3.363 14.25 5.479 1.212.546 2.39 1.143 3.585 1.724a119.381 119.381 0 0 1 66.73 107.025 17.067 17.067 0 1 0 34.134 0 153.259 153.259 0 0 0-54.614-117.265c48.93-64 129.502-104.602 209.664-104.602 132.182 0 241.954 104.704 253.406 237.022-17.442-1.229-43.554-1.86-69.683 2.116a17.067 17.067 0 0 0 5.12 33.74c38.007-5.75 77.62-.357 79.94-.033 79.463 15.104 139.367 88.303 139.367 170.41 0 94.362-76.783 171.145-171.145 171.145z"/></svg>