<svg  xmlns="http://www.w3.org/2000/svg" viewBox="0 0 1024 1024"><path  d="M671.784 788.005H123.032c-58.984 0-106.972-42.325-106.972-94.35v-363.31c0-52.025 47.988-94.35 106.972-94.35h548.752c58.985 0 106.974 42.325 106.974 94.35v363.308c-.002 52.025-47.989 94.352-106.974 94.352zM123.032 270.452c-39.984 0-72.515 26.868-72.515 59.893v363.308c0 33.026 32.529 59.893 72.515 59.893h548.752c39.986 0 72.517-26.867 72.517-59.893V330.345c0-33.025-32.531-59.893-72.517-59.893H123.032z"/><path  d="M1001.533 703.153a17.211 17.211 0 0 1-10.472-3.547L763.755 525.682a17.227 17.227 0 0 1 0-27.364l227.306-173.924a17.232 17.232 0 0 1 27.699 13.683v347.848a17.229 17.229 0 0 1-17.227 17.228zM802.578 511.999l181.725 139.048V372.953L802.578 511.999z"/></svg>