<svg  xmlns="http://www.w3.org/2000/svg" viewBox="0 0 1024 1024"><path  d="M599.104 243.435v546.112c0 43.626-53.867 64.789-84.053 33.024L374.74 694.485H203.392a64 64 0 0 1-64-64V416.981a64 64 0 0 1 60.224-63.893l4.31-.107 172.97 2.88 138.176-145.45c30.165-31.787 84.053-10.603 84.053 33.024zm127.68 12.309c92.544 47.083 158.23 139.392 167.957 247.83v56.02c-9.45 105.473-71.85 195.691-160.426 243.883l-29.526-56.81A245.27 245.27 0 0 0 832 531.584a245.333 245.333 0 0 0-134.699-219.03l29.483-56.81zm-191.68 26.496L403.947 420.33l-200.555-3.349v213.483h196.16l135.552 123.733V282.24zm137.77 77.419a191.467 191.467 0 0 1 94.443 165.418 191.467 191.467 0 0 1-92.416 164.203l-29.653-56.96a127.488 127.488 0 0 0 58.07-107.243 127.488 127.488 0 0 0-60.011-108.501l29.568-56.917z"/></svg>